# AST/ASF file generated using VICON BodyLanguage
# -----------------------------------------------
:version 1.10
:name VICON
:units
  mass 1.0
  length 0.45
  angle deg
:documentation
   .ast/.asf automatically generated from VICON data using
   VICON BodyBuilder and BodyLanguage model FoxedUp or BRILLIANT.MOD
:root
   order TX TY TZ RX RY RZ
   axis XYZ
   position 0 0 0  
   orientation 0 0 0 
:bonedata
  begin
     id 1 
     name lhipjoint
     direction 0.611804 -0.747784 0.257906 
     length 2.29243 
     axis 0 0 0  XYZ
  end
  begin
     id 2 
     name lfemur
     direction 0.34202 -0.939693 0  
     length 7.31159  
     axis 0 0 20  XYZ
    dof rx ry rz
    limits (-160.0 20.0)
           (-70.0 70.0)
           (-60.0 70.0)
  end
  begin
     id 3 
     name ltibia
     direction 0.34202 -0.939693 0   
     length 7.33391   
     axis 0 0 20   XYZ
    dof rx
    limits (-10.0 170.0)
  end
  begin
     id 4 
     name lfoot
     direction 0.122263 -0.335914 0.933924   
     length 1.76083   
     axis -90 7.62852e-016 20   XYZ
    dof rx rz
    limits (-45.0 90.0)
           (-70.0 20.0)
  end
  begin
     id 5 
     name ltoes
     direction 1.53533e-011 -4.2177e-011 1   
     length 0.879206   
     axis -90 7.62852e-016 20   XYZ
    dof rx
    limits (-90.0 20.0)
  end
  begin
     id 6 
     name rhipjoint
     direction -0.646469 -0.721248 0.248754   
     length 2.37677  
     axis 0 0 0  XYZ 
  end
  begin
     id 7 
     name rfemur
     direction -0.34202 -0.939693 0   
     length 7.18623   
     axis 0 0 -20   XYZ
    dof rx ry rz
    limits (-160.0 20.0)
           (-70.0 70.0)
           (-70.0 60.0)
  end
  begin
     id 8 
     name rtibia
     direction -0.34202 -0.939693 0   
     length 7.36567   
     axis 0 0 -20   XYZ
    dof rx
    limits (-10.0 170.0)
 end
 begin
     id 9 
     name rfoot
     direction -0.126681 -0.348054 0.928876   
     length 1.71902  
     axis -90 -7.62852e-016 -20   XYZ
    dof rx rz
    limits (-45.0 90.0)
           (-20.0 70.0)
  end
  begin
     id 10 
     name rtoes
     direction -1.53551e-011 -4.21898e-011 1   
     length 0.857792   
     axis -90 -7.62852e-016 -20   XYZ
    dof rx
    limits (-90.0 20.0)
  end
  begin
     id 11 
     name lowerback
     direction 0.0106509 0.999778 0.0181844   
     length 2.07668   
     axis 0 0 0   XYZ
    dof rx ry rz
    limits (-20.0 45.0)
           (-30.0 30.0)
           (-30.0 30.0)
  end
  begin
     id 12 
     name upperback
     direction -0.00456018 0.999989 -0.000590935   
     length 2.08011   
     axis 0 0 0   XYZ
    dof rx ry rz
    limits (-20.0 45.0)
           (-30.0 30.0)
           (-30.0 30.0)
  end
  begin
     id 13 
     name thorax
     direction -0.00910382 0.999916 -0.00923765   
     length 2.07397   
     axis 0 0 0   XYZ
    dof rx ry rz
    limits (-20.0 45.0)
           (-30.0 30.0)
           (-30.0 30.0)
  end
  begin
     id 14 
     name lowerneck
     direction 0.00171967 0.99778 0.0665733   
     length 1.67556   
     axis 0 0 0   XYZ
    dof rx ry rz
    limits (-20.0 45.0)
           (-30.0 30.0)
           (-30.0 30.0)
  end
  begin
     id 15 
     name upperneck
     direction -0.0143166 0.991302 -0.130828   
     length 1.68462   
     axis 0 0 0   XYZ
    dof rx ry rz
    limits (-20.0 45.0)
           (-30.0 30.0)
           (-30.0 30.0)
  end
  begin
     id 16
     name head
     direction -0.00606378 0.998665 -0.0512995  
     length 1.69269  
     axis 0 0 0   XYZ
    dof rx ry rz
    limits (-20.0 45.0)
           (-30.0 30.0)
           (-30.0 30.0)
  end
  begin
     id 17 
     name lclavicle
     direction 0.9638 0.179341 0.197297  
     length 4.12888  
     axis 0 0 0   XYZ
    dof ry rz
    limits (-20.0 10.0)
           (0.0 20.0)
  end
  begin
     id 18 
     name lhumerus
     direction 1 -4.48972e-011 -2.47351e-027   
     length 5.01834   
     axis -180 -30 -90   XYZ
    dof rx ry rz
    limits (-60.0 90.0)
           (-90.0 90.0)
           (-90.0 90.0)
  end
  begin
     id 19
     name lradius
     direction 1 -4.48965e-011 1.51591e-026   
     length 3.4869   
     axis -180 -30 -90   XYZ
    dof rx
    limits (-10.0 170.0)
  end
  begin
     id 20
     name lwrist
     direction 1 -4.48957e-011 2.70032e-026   
     length 1.74345   
     axis -1.81515e-014 90 90   XYZ
    dof ry
    limits (-180.0 0.0)
 end
  begin
     id 21 
     name lhand
     direction 1 -4.48951e-011 5.40064e-026   
     length 0.76799   
     axis -3.44607e-014 90 90   XYZ
    dof rx rz
    limits (-90.0 90.0)
           (-45.0 45.0)
  end
  begin
     id 22 
     name lfingers
     direction 1 -4.48971e-011 1.08013e-025   
     length 0.619174   
     axis -6.89214e-014 90 90   XYZ
    dof rx
    limits (0.0 90.0)
  end
  begin
     id 23
     name lthumb
     direction 0.707107 -6.34931e-011 0.707107   
     length 0.889013   
     axis -90 45 2.85299e-015   XYZ
    dof rx rz
    limits (-45.0 45.0)
           (-45.0 45.0)
  end
  begin
     id 24 
     name rclavicle
     direction -0.961409 0.252588 0.109054   
     length 4.04305  
     axis 0 0 0   XYZ 
    dof ry rz
    limits (-10.0 20.0)
           (-20.0 0.0)
  end
  begin
     id 25 
     name rhumerus
     direction -1 -4.4897e-011 1.33872e-017  
     length 4.70164   
     axis -180 30 90   XYZ
    dof rx ry rz
    limits (-90.0 60.0)
           (-90.0 90.0)
           (-90.0 90.0)
  end
  begin
     id 26 
     name rradius
     direction -1 -4.48954e-011 1.83844e-026   
     length 3.49911   
     axis -180 30 90   XYZ
    dof rx
    limits (-10.0 170.0)
  end
  begin
     id 27 
     name rwrist
     direction -1 -4.49008e-011 2.70032e-026   
     length 1.74955   
     axis -1.81515e-014 -90 -90   XYZ
    dof ry
    limits (-180.0 0.0)
  end
  begin
     id 28
     name rhand
     direction -1 -4.48916e-011 5.40064e-026   
     length 0.739335   
     axis -3.44607e-014 -90 -90   XYZ
    dof rx rz
    limits (-90.0 90.0)
           (-45.0 45.0)
  end
  begin
     id 29
     name rfingers
     direction -1 -4.48987e-011 1.08013e-025   
     length 0.596071   
     axis -6.89214e-014 -90 -90   XYZ
    dof rx
    limits (0.0 90.0)
  end
  begin
     id 30
     name rthumb
     direction -0.707107 -6.34935e-011 0.707107   
     length 0.855843   
     axis -90 -45 -2.85299e-015   XYZ
    dof rx rz
    limits (-45.0 45.0)
           (-45.0 45.0)
  end
:hierarchy
  begin
    root lhipjoint rhipjoint lowerback
    lhipjoint lfemur
    lfemur ltibia
    ltibia lfoot
    lfoot ltoes
    rhipjoint rfemur
    rfemur rtibia
    rtibia rfoot
    rfoot rtoes
    lowerback upperback
    upperback thorax
    thorax lowerneck lclavicle rclavicle
    lowerneck upperneck
    upperneck head
    lclavicle lhumerus
    lhumerus lradius
    lradius lwrist
    lwrist lhand lthumb
    lhand lfingers
    rclavicle rhumerus
    rhumerus rradius
    rradius rwrist
    rwrist rhand rthumb
    rhand rfingers
  end

#!OML:ASF I:\salsa\salsa 7_09\Patient 1\Session 1\dancermale.ASF
:FULLY-SPECIFIED
:DEGREES
106
root 6.41962 16.9758 1.01049 197.839 79.1751 191.911
lowerback -6.452 0.361287 3.8019
upperback -1.17997 0.248601 0.13008
thorax 2.41436 0.164893 -1.97937
lowerneck -5.66612 -5.32753 -1.4048
upperneck 20.1883 -6.36258 -1.82149
head 7.08602 -3.13383 -0.823354
rclavicle -1.45944e-014 1.98288e-014
rhumerus -17.0524 12.1241 -86.4077
rradius 86.4698
rwrist -36.7992
rhand -36.9385 -10.127
rfingers 7.12502
rthumb -10.0154 -39.8687
lclavicle -1.45944e-014 1.98288e-014
lhumerus -44.355 -15.1226 105.044
lradius 95.2937
lwrist 37.1895
lhand -31.4086 49.9333
lfingers 7.12502
lthumb -4.67772 79.8616
rfemur -11.6021 -1.58834 26.0435
rtibia 29.9845
rfoot -25.2864 -10.7063
rtoes -3.43462
lfemur -29.2426 5.17101 -14.3883
ltibia 61.5275
lfoot -11.3454 -6.81303
ltoes 11.1608
107
root 6.45192 16.9347 1.04255 197.681 78.7838 192.025
lowerback -6.29508 0.120544 3.62154
upperback -0.775537 -0.0728426 0.244115
thorax 2.7251 0.0103461 -1.78755
lowerneck -6.19377 -5.17079 -1.40824
upperneck 20.0801 -6.1678 -1.7754
head 7.1464 -3.04533 -0.80761
rclavicle 1.66801e-014 6.95746e-016
rhumerus -15.8418 12.4273 -86.9437
rradius 85.8279
rwrist -36.3915
rhand -37.1853 -9.62593
rfingers 7.12502
rthumb -10.2534 -39.356
lclavicle 1.66801e-014 6.95746e-016
lhumerus -41.9755 -14.6447 103.197
lradius 92.7688
lwrist 36.6584
lhand -31.0361 49.7826
lfingers 7.12502
lthumb -4.31797 79.7186
rfemur -11.6341 -2.30878 26.3037
rtibia 30.7476
rfoot -25.6217 -10.8068
rtoes -3.71029
lfemur -31.3411 6.16747 -14.1406
ltibia 63.8853
lfoot -11.6757 -5.56107
ltoes 9.71288
108
root 6.49291 16.8995 1.06902 197.827 78.7094 192.386
lowerback -6.04209 -0.0703833 3.40404
upperback -0.56588 -0.313997 0.380503
thorax 2.78822 -0.11067 -1.54449
lowerneck -6.33339 -4.95615 -1.54822
upperneck 19.8667 -5.89535 -1.62069
head 7.11219 -2.91764 -0.714412
rclavicle -8.84592e-015 4.22417e-016
rhumerus -15.0524 12.7935 -87.7058
rradius 85.2678
rwrist -36.0029
rhand -37.5305 -8.85032
rfingers 7.12502
rthumb -10.5864 -38.5637
lclavicle -8.84592e-015 4.22417e-016
lhumerus -39.7364 -13.9206 101.308
lradius 90.5745
lwrist 35.9723
lhand -31.4502 50.3628
lfingers 7.12502
lthumb -4.71784 80.2903
rfemur -11.6642 -2.95141 26.4998
rtibia 31.4858
rfoot -25.9057 -10.7984
rtoes -4.77027
lfemur -32.8817 7.6144 -13.9738
ltibia 64.7208
lfoot -11.9301 -3.84357
ltoes 10.036
109
root 6.53309 16.8718 1.09199 198.02 78.5853 192.673
lowerback -5.76385 -0.213794 3.26151
upperback -0.480768 -0.489744 0.435891
thorax 2.71286 -0.201166 -1.42027
lowerneck -6.33449 -4.8094 -1.54328
upperneck 19.6533 -5.74427 -1.41889
head 7.04918 -2.83206 -0.63533
rclavicle -6.35645e-015 -6.5102e-015
rhumerus -14.543 12.7606 -88.7472
rradius 84.8975
rwrist -35.4648
rhand -37.7892 -8.22324
rfingers 7.12502
rthumb -10.8359 -37.9237
lclavicle -6.35645e-015 -6.5102e-015
lhumerus -37.4075 -13.2898 99.19
lradius 88.6944
lwrist 34.4683
lhand -31.3204 51.4486
lfingers 7.12502
lthumb -4.59248 81.3788
rfemur -11.8202 -3.58353 26.697
rtibia 32.2317
rfoot -26.1867 -10.7431
rtoes -4.67942
lfemur -34.4018 8.92112 -13.8792
ltibia 64.6745
lfoot -12.4863 -2.04433
ltoes 11.6239
110
root 6.57669 16.8526 1.11298 198.89 78.4185 193.542
lowerback -5.49628 -0.308483 3.27183
upperback -0.500693 -0.606557 0.480119
thorax 2.53712 -0.262462 -1.38723
lowerneck -6.37412 -4.73525 -1.33332
upperneck 19.5517 -5.68284 -1.39175
head 7.01682 -2.78789 -0.655568
rclavicle -1.77043e-016 2.24627e-014
rhumerus -14.3258 12.5672 -89.9071
rradius 84.8337
rwrist -34.8556
rhand -38.1042 -7.83382
rfingers 7.12502
rthumb -11.1398 -37.5181
lclavicle -1.77043e-016 2.24627e-014
lhumerus -35.0106 -12.7649 96.919
lradius 87.0064
lwrist 32.5038
lhand -31.3027 53.01
lfingers 7.12502
lthumb -4.57542 82.9406
rfemur -12.0243 -3.97838 27.0868
rtibia 32.8482
rfoot -26.3913 -10.7543
rtoes -3.30902
lfemur -35.9457 10.2492 -13.7008
ltibia 63.8651
lfoot -12.6287 -0.913856
ltoes 7.26254
111
root 6.62362 16.8376 1.12634 199.426 78.1475 194
lowerback -5.22229 -0.410138 3.35602
upperback -0.61497 -0.731785 0.464777
thorax 2.25858 -0.329347 -1.45594
lowerneck -6.35609 -4.69987 -1.06128
upperneck 19.4607 -5.6705 -1.42455
head 6.97388 -2.7672 -0.707511
rclavicle -7.63147e-015 1.09332e-014
rhumerus -14.4203 12.4579 -91.0305
rradius 85.0132
rwrist -34.2131
rhand -38.6881 -7.29915
rfingers 7.12502
rthumb -11.7029 -36.9523
lclavicle -7.63147e-015 1.09332e-014
lhumerus -32.7079 -12.5385 94.6508
lradius 85.2866
lwrist 30.8474
lhand -33.1287 54.2958
lfingers 7.12502
lthumb -6.33843 84.1809
rfemur -12.1774 -4.2884 27.4128
rtibia 33.2397
rfoot -26.5627 -10.863
rtoes -2.12937
lfemur -37.5505 11.3694 -13.6497
ltibia 62.4682
lfoot -12.5149 -0.386256
ltoes 4.0988
112
root 6.66957 16.82 1.13894 198.662 77.8079 193.186
lowerback -4.82639 -0.578675 3.15544
upperback -0.756366 -0.925268 0.426797
thorax 1.88433 -0.434685 -1.38949
lowerneck -6.33547 -4.64547 -0.8923
upperneck 19.4366 -5.62474 -1.40173
head 6.95756 -2.73166 -0.723232
rclavicle -9.41742e-015 7.95139e-015
rhumerus -14.7611 12.3015 -92.1777
rradius 85.3819
rwrist -33.3493
rhand -39.4215 -6.50354
rfingers 7.12502
rthumb -12.41 -36.1152
lclavicle -9.41742e-015 7.95139e-015
lhumerus -30.4011 -12.0873 92.1899
lradius 84.3227
lwrist 28.6453
lhand -33.4033 56.6882
lfingers 7.12502
lthumb -6.60356 86.5652
rfemur -12.2098 -4.58749 27.4727
rtibia 33.4772
rfoot -26.7533 -11.2907
rtoes -2.21172
lfemur -38.9989 12.1105 -13.8949
ltibia 60.6007
lfoot -12.6902 0.0525765
ltoes -0.0431519
113
root 6.71887 16.801 1.15459 197.271 77.5621 191.828
lowerback -4.35503 -0.775241 2.60164
upperback -0.85472 -1.14279 0.463463
thorax 1.52111 -0.552668 -1.04625
lowerneck -6.37377 -4.54825 -0.747314
upperneck 19.4665 -5.49076 -1.5045
head 6.96647 -2.66529 -0.770773
rclavicle -7.17488e-015 -8.24956e-015
rhumerus -15.1635 12.0707 -93.3329
rradius 85.8765
rwrist -32.2115
rhand -40.337 -5.64011
rfingers 7.12502
rthumb -13.2927 -35.1962
lclavicle -7.17488e-015 -8.24956e-015
lhumerus -28.1621 -11.3984 89.8398
lradius 83.4066
lwrist 25.9892
lhand -33.4678 57.2403
lfingers 7.12502
lthumb -6.66583 87.1153
rfemur -12.0828 -4.83235 27.373
rtibia 33.6475
rfoot -26.8944 -11.8177
rtoes -2.382
lfemur -40.0183 12.7613 -14.3136
ltibia 58.2379
lfoot -12.806 0.606067
ltoes -3.31365
114
root 6.79778 16.7773 1.15737 198.172 77.8921 192.428
lowerback -4.64402 -0.736034 2.33116
upperback -0.972468 -1.08366 0.585037
thorax 1.57137 -0.523388 -0.770208
lowerneck -6.38071 -4.43814 -0.501719
upperneck 19.4333 -5.32769 -1.75151
head 6.94249 -2.59084 -0.876839
rclavicle 2.80442e-014 -1.14301e-014
rhumerus -15.3953 11.1767 -94.3144
rradius 86.6636
rwrist -33.204
rhand -41.1939 -4.66976
rfingers 7.12502
rthumb -14.1185 -34.1701
lclavicle 2.80442e-014 -1.14301e-014
lhumerus -25.9858 -10.5334 87.5252
lradius 82.7272
lwrist 24.2323
lhand -32.8717 57.7335
lfingers 7.12502
lthumb -6.09034 87.626
rfemur -12.1793 -4.7025 27.6405
rtibia 33.7431
rfoot -26.9023 -11.9379
rtoes -2.17057
lfemur -40.8347 14.1769 -14.469
ltibia 55.2618
lfoot -12.5144 1.12399
ltoes -4.35559
115
root 6.86679 16.7672 1.15381 199.894 77.7963 193.877
lowerback -4.72666 -0.803606 2.41495
upperback -1.15879 -1.17473 0.786886
thorax 1.42585 -0.569303 -0.61475
lowerneck -6.37473 -4.34484 -0.365675
upperneck 19.3661 -5.1965 -1.88297
head 6.91255 -2.53042 -0.929795
rclavicle 3.0675e-014 6.36111e-015
rhumerus -16.0288 11.2873 -95.5862
rradius 86.9436
rwrist -30.104
rhand -42.6493 -3.6358
rfingers 7.12502
rthumb -15.5206 -33.0329
lclavicle 3.0675e-014 6.36111e-015
lhumerus -23.8599 -9.68157 85.2625
lradius 82.1633
lwrist 24.6938
lhand -30.4661 54.8469
lfingers 7.12502
lthumb -3.76755 84.7933
rfemur -12.3207 -4.90341 28.1339
rtibia 33.828
rfoot -26.7901 -12.2186
rtoes -2.55049
lfemur -41.5934 15.1242 -14.3602
ltibia 52.2545
lfoot -11.7185 1.70259
ltoes -5.79526
116
root 6.95907 16.745 1.13551 197.576 77.9346 191.671
lowerback -4.70889 -0.880705 1.70204
upperback -1.12451 -1.24541 0.778378
thorax 1.46458 -0.607097 -0.228516
lowerneck -6.40365 -4.29645 -0.30241
upperneck 19.3007 -5.1321 -1.93984
head 6.89348 -2.50141 -0.953137
rclavicle -6.55058e-015 2.5345e-015
rhumerus -16.637 10.8348 -96.6469
rradius 87.5918
rwrist -28.5802
rhand -43.9962 -2.56566
rfingers 7.12502
rthumb -16.8175 -31.8574
lclavicle -6.55058e-015 2.5345e-015
lhumerus -21.6336 -8.9503 83.1501
lradius 81.4459
lwrist 26.4481
lhand -28.4787 52.5128
lfingers 7.12502
lthumb -1.84823 82.4846
rfemur -11.7508 -5.35784 27.5273
rtibia 33.7989
rfoot -26.7014 -12.3349
rtoes -3.31435
lfemur -41.3814 15.7392 -15.0905
ltibia 48.8722
lfoot -9.61328 1.82523
ltoes -4.60253
117
root 7.00503 16.7315 1.15073 199.87 77.681 193.312
lowerback -4.91175 -0.93282 1.5214
upperback -1.42508 -1.30184 1.10561
thorax 1.28002 -0.634051 0.204601
lowerneck -6.44347 -4.30323 -0.137381
upperneck 19.1786 -5.14851 -2.06009
head 6.85244 -2.51053 -1.0189
rclavicle -1.10729e-015 -4.67144e-015
rhumerus -17.1402 10.3013 -97.5952
rradius 88.2526
rwrist -26.8436
rhand -45.2538 -1.76107
rfingers 7.12502
rthumb -18.0279 -30.9456
lclavicle -1.10729e-015 -4.67144e-015
lhumerus -19.3175 -8.64261 81.2025
lradius 80.6015
lwrist 27.87
lhand -26.2559 50.9507
lfingers 7.12502
lthumb 0.298554 80.9303
rfemur -12.7765 -4.96229 28.4856
rtibia 34.582
rfoot -26.6022 -13.2101
rtoes -4.17167
lfemur -42.7177 16.5447 -15.0588
ltibia 46.9831
lfoot -6.86182 1.21594
ltoes -3.47267
